<?xml version="1.0" encoding="UTF-8"?>
<svg xmlns="http://www.w3.org/2000/svg" version="1.1" viewBox="0 0 70 65.61">
  <defs>
    <style>
      .cls-1 {
        fill: #c66198;
      }

      .cls-2 {
        fill: #f28cba;
      }

      .cls-3 {
        fill: #7fd398;
      }

      .cls-4 {
        fill: #fe8;
      }

      .cls-5 {
        fill: #e56aa8;
      }

      .cls-6 {
        fill: #e33ce4;
      }

      .cls-7 {
        fill: #00a9b8;
      }

      .cls-8 {
        fill: #4ff2d8;
      }

      .cls-9 {
        fill: #b6e0f9;
      }

      .cls-10 {
        fill: #fff;
      }

      .cls-11 {
        fill: #f2c2da;
      }

      .cls-12 {
        fill: #a3d3af;
        opacity: .6;
      }

      .cls-13 {
        fill: #e2901a;
        opacity: .58;
      }

      .cls-14 {
        opacity: .7;
      }

      .cls-15 {
        fill: #fdffff;
      }

      .cls-16 {
        fill: #a2f2bd;
      }

      .cls-17 {
        fill: #2d2d2d;
      }

      .cls-18 {
        fill: #6fe5c3;
      }

      .cls-19 {
        fill: #daf7e2;
      }

      .cls-20 {
        fill: #ffe36e;
      }

      .cls-21 {
        fill: #f9f298;
      }

      .cls-22 {
        fill: #c9f4d6;
      }
    </style>
  </defs>
  <!-- Generator: Adobe Illustrator 28.7.1, SVG Export Plug-In . SVG Version: 1.2.0 Build 142)  -->
  <g>
    <g id="Layer_1">
      <g>
        <g>
          <path class="cls-17" d="M1.32,62.84h-.23s.06-.11.06-.11c.04.04.09.07.17.11Z"/>
          <path class="cls-17" d="M34.58,64.59c-5.04,0-12.1-.6-18.95-1.04-7.75-.5-11.43.27-12.98-.32l-.63-.4-.5.02c-.16-.08-.54-1.16-.54-1.16L29.39,14.1l10.42.12,27.09,47.5c.61.18,0-.82,0,0,0,1.01-1.56.97-2.13,1.11-.65.16-.46-.55-1.67-.39-2.15.28-4.95.54-8.65.79-6.85.45-14.45,1.36-19.88,1.36Z"/>
          <path class="cls-17" d="M1.37,62.37l-.22.37s-.06-.08-.06-.12c0-.08.1-.17.28-.25Z"/>
        </g>
        <g>
          <g>
            <polygon class="cls-16" points="66.67 62.42 .99 62.83 29.63 14.85 39.54 14.85 66.67 62.42"/>
            <path class="cls-16" d="M67.6,62.7c0,1.3-22.46,2.49-33.01,2.49S.99,63.9.99,62.6s23.05-2.11,33.6-2.11,33.01.91,33.01,2.21Z"/>
          </g>
          <g class="cls-14">
            <polygon class="cls-22" points="46.12 59.88 23.05 59.88 31.76 13.77 37.41 13.77 46.12 59.88"/>
            <path class="cls-22" d="M51.46,61.15c0,1.9-8.06,3.44-16.88,3.44s-16.88-1.54-16.88-3.44,8.06-3.44,16.88-3.44,16.88,1.54,16.88,3.44Z"/>
            <path class="cls-19" d="M46.25,60.85c0,1.31-5.57,2.38-11.67,2.38s-11.67-1.06-11.67-2.38,5.57-2.38,11.67-2.38,11.67,1.06,11.67,2.38Z"/>
            <path class="cls-12" d="M41.61,60.53c0,.76-3.36,1.38-7.03,1.38s-7.03-.62-7.03-1.38,3.36-1.38,7.03-1.38,7.03.62,7.03,1.38Z"/>
          </g>
          <polygon class="cls-12" points="38.28 59.58 30.89 59.58 30.89 32.52 38.28 31.09 38.28 59.58"/>
          <g>
            <ellipse class="cls-3" cx="33.98" cy="34.5" rx="1.29" ry="1.27"/>
            <ellipse class="cls-3" cx="44.18" cy="48.79" rx="3.14" ry="3.07"/>
            <ellipse class="cls-3" cx="24.1" cy="53.19" rx="2.03" ry="1.99"/>
            <ellipse class="cls-3" cx="23.47" cy="44.01" rx=".83" ry=".81"/>
            <ellipse class="cls-3" cx="48.1" cy="55.63" rx="1.02" ry=".99"/>
            <ellipse class="cls-3" cx="44.51" cy="39.6" rx=".65" ry=".63"/>
            <path class="cls-3" d="M30.13,40.24"/>
            <path class="cls-3" d="M35.75,53.43"/>
          </g>
        </g>
      </g>
    </g>
    <g id="Layer_2">
      <g>
        <g>
          <path class="cls-18" d="M17.17,19.36s2.47.94,6.63,2.28,8.19,2.04,8.19,2.04l3.74.56,4.39.49,3.54.27,3.39.19,2,.1,4.18-.22s-1.58,4.26-7.22,7.23c-5.63,2.96-9.64,2.02-14.03,1.39-4.39-.62-8.57-4.27-10.31-6.11-1.74-1.83-2.44-3.91-2.44-3.91,0,0-2.22-4.07-2.05-4.32Z"/>
          <path class="cls-7" d="M30.4,24.81s12.64,3.39,21.31,1.06l-3.51,3.77s-.28-1.33-1.65-1.12c-1.37.21-2.3.39-2.57,1.12-.27.73.67,2.02.67,2.02,0,0-1.02,1.09-6.57,1.62-5.54.53-11.14-2.78-11.14-2.78,0,0,5.91.85,7.67.13,1.76-.72,3.67-2.09,3.67-2.09l-7.88-3.74Z"/>
          <path class="cls-20" d="M15.09,24.87s-.33-.67-.36-1.51c-.03-.83.75-1.91.97-1.91.22,0,.86.16.86.16l4.64,1.51s4.4,1.73,4.94,2.02.76.43.57.58c-.2.15-1.24.16-1.24.16l-6.9-.41s-3.46-.47-3.47-.6Z"/>
          <path class="cls-21" d="M17.48,21.99s4.06,2.47,4.92,2.56,3.36.62,3.36.62l-8.28-3.18Z"/>
          <path class="cls-13" d="M15.59,21.62s.9,1.12,1.03,1.38c.13.26,7.16,2.18,7.16,2.18l2.81.42s.21,0-.25.14c-.46.15-8.79-.33-8.79-.33,0,0-2.3-.09-2.65-.75-.34-.66-.3-2.61.69-3.05Z"/>
          <path class="cls-2" d="M25.63,11.34s-6.91.15-9.88,1-3.91,1.66-3.4,3.36c.51,1.7,4.75,3.55,4.75,3.55,0,0,3.16,1.41,6.94,2.47,3.78,1.06,9.9,2.26,9.9,2.26l7.86.88,7.97.52s5.41-.42,7.41-.8c2.01-.38,4.72-1.81,3.92-3.48-.8-1.67-4.44-3.4-4.44-3.4l-4.88-2.19-2.85-.54-23.3-3.65Z"/>
          <path class="cls-11" d="M41.06,23.91s12.02,1.07,16.54-.86c1.78-.76,2.82-1.51,3.33-2.25-1.05-1.57-4.26-3.09-4.26-3.09l-4.88-2.19-2.85-.54-3.46-.54c-1.14.97-2.06,1.79-2.03,1.85.08.15-.24,3.05-.24,3.05,0,0,2.7.48,3.5,1.41s.78,2.06.78,2.06l-6.42,1.1Z"/>
          <path class="cls-1" d="M22.14,12.26s-6.41.36-8.39,1.65c-1.98,1.29,4.64,4.06,4.64,4.06l4.97,1.8,3.92,1.18s-5.43-3.61-5.79-4.15c-.37-.54-.77-3.28-.54-3.5.23-.21,3.72-1.25,3.72-1.25l-2.53.2Z"/>
          <path class="cls-9" d="M24.39,14.4s4.27-9.55,8.36-11.91c4.1-2.36,6.94-2.73,10.33.14,3.38,2.87,4.68,7.11,4.68,7.11l1.27,4.82.46,3.31s-4.43,2.52-13.66.77c-8.46-1.61-11.83-3.53-11.43-4.23Z"/>
          <path class="cls-15" d="M26.69,13.21s2.21-5.23,4.57-7.65c2.37-2.43,5.26-4.04,5.26-4.04,0,0-4.76,4.87-5.19,6.07-.43,1.2-1.07,4.62-.44,5.4.63.78,3.06,3.67,3.06,3.67,0,0-6.83-1.77-7.26-3.44Z"/>
          <path class="cls-20" d="M48.86,34.69s-.08.97.16,1.11c.24.14.89.37,1.26-.06.37-.42.49-.69.26-1.1s-.66-.45-.68-.45c-.03,0-.31.03-.31.03,0,0-1.97-3.98-1.99-4.02s-.52-.98-.52-.98c0,0-.49-.05-.99.23s-.9.76-.81.93.47.78.47.78c0,0,2.83,3.27,2.84,3.29s.3.24.3.24Z"/>
          <path class="cls-13" d="M45.69,29.73s.68.14.74.2l.05.06-.9.88s.7-.22.82-.16c.12.06,2.98,3.91,2.98,3.91l-.55.36s.27.35.18.46c-.08.1.25-.39.59-.54.35-.14,1-.06,1-.06,0,0,.28-.39-.17-.52-.45-.12-.84-.06-.93-.18-.08-.13-2.45-4.91-2.45-4.91,0,0-.47.02-.71.14s-.64.36-.64.36Z"/>
          <path class="cls-20" d="M20.27,31.33s-.58-.12-1,.33c-.43.45.36,1.27.74,1.31s.73-.19.78-.27c.05-.08.23-.77.23-.77.05-.08,4.27-3.36,4.29-3.43.03-.06.31-.18-.11-.7-.42-.52-.93-.91-.93-.91l-.6-.07-.26.38-2.88,3.82-.27.31Z"/>
          <path class="cls-13" d="M19.2,32.49s.44.31.89-.1.32-.95.32-.95l.2-.32.36.15s3.41-2.87,3.54-3.05c.13-.18.06-1.03.06-1.03,0,0,.23.15.37.36.14.21.52.47.47.69s-.18.36-.18.36l-4.18,3.46s.13.86-.64.95c-.77.09-1.19-.3-1.19-.51Z"/>
        </g>
        <g>
          <path class="cls-17" d="M3.54,61.15h4v2.08H.99v-9.59h2.56v7.51Z"/>
          <path class="cls-17" d="M17.16,61.15v2.08h-8.55v-9.59h5.28v2.08h-2.72v1.68h3.68v2.08h-3.68v1.68h5.99Z"/>
          <path class="cls-17" d="M24.86,53.63v9.91l-5.44-5.04v4.72h-2.56v-9.91l5.44,5.04v-4.72h2.56Z"/>
          <path class="cls-17" d="M35.01,58.43c0,3-1.8,4.8-4.8,4.8h-3.76v-9.59h3.76c3,0,4.8,1.8,4.8,4.8ZM32.46,58.43c0-1.75-.8-2.72-2.24-2.72h-1.2v5.44h1.2c1.44,0,2.24-.97,2.24-2.72Z"/>
          <path class="cls-17" d="M40.09,54.82h-1.42l-3.93,8.4h9.27l-3.93-8.4ZM39.38,58.6l1.27,2.7h-2.53l1.27-2.7Z"/>
          <path class="cls-17" d="M50.69,63.22l-2.15-3.3h-.91v3.3h-2.56v-9.59h3.6c3.37,0,4.72.91,4.72,3.14,0,1.56-.65,2.46-2.17,2.88l2.33,3.57h-2.86ZM47.64,57.84h1.04c1.61,0,2.16-.27,2.16-1.07s-.55-1.07-2.16-1.07h-1.04v2.13Z"/>
          <path class="cls-17" d="M60.01,61.15l-1.07,2.08h-4.48l-1.21-2.08h2.17v-5.44h-.96l-1.21-2.08h6.75l-1.07,2.08h-.96v5.44h2.03Z"/>
          <path class="cls-17" d="M69.01,63.22h-9.27l4.64-9.91,4.64,9.91ZM63.11,61.3h2.53l-1.27-2.7-1.27,2.7Z"/>
          <path class="cls-17" d="M39,52.26l-.45,1.87h1.62l1.36-1.87h-2.54Z"/>
        </g>
        <g>
          <path class="cls-17" d="M13.52,12.85s.05-.01.08-.02c.56-.28,1.15-.48,1.74-.65,1.01-.29,2.05-.47,3.09-.6,1.7-.22,3.41-.31,5.12-.33.59,0,1.19,0,1.78,0,.19,0,.14.03.22-.14.5-.97,1.01-1.95,1.57-2.89.64-1.07,1.35-2.1,2.17-3.04.55-.64,1.15-1.23,1.81-1.76.45-.36.93-.7,1.41-1.02.43-.28.86-.54,1.31-.77.99-.51,2.02-.87,3.12-1.06.82-.15,1.64-.16,2.46-.03.78.13,1.51.4,2.21.78,1.1.61,2.05,1.41,2.89,2.34.65.72,1.19,1.51,1.68,2.35.34.59.66,1.2.95,1.82.41.88.8,1.77,1.13,2.68.35.98.63,1.98.86,2.99.09.4.17.81.25,1.21.01.07.05.11.12.13,1.53.44,3.04.93,4.52,1.5,1.26.48,2.5,1.02,3.7,1.66.73.39,1.44.83,2.09,1.34.36.28.69.59.98.94.06.08.12.16.18.24.02.03.05.06.08.09l.18.32s.01.06.03.09c.32.7.24,1.34-.22,1.95-.18.23-.4.43-.64.6-.47.33-1,.57-1.54.77-1.05.38-2.14.61-3.25.78-.72.11-1.44.2-2.17.26-.04,0-.08,0-.12.01-.01.06-.02.11-.04.17-.06.25-.17.48-.28.71-.29.57-.65,1.09-1.03,1.6-.64.83-1.37,1.59-2.16,2.28-.4.35-.81.68-1.23.99-.06.05-.12.09-.19.14.24.47.49.92.71,1.39.22.47.42.94.64,1.42.02,0,.03,0,.05,0,.57-.07.93.25,1.07.71.22.7-.28,1.39-1.01,1.41-.4.01-.75-.12-1-.44-.21-.26-.3-.55-.23-.89.01-.05,0-.09-.03-.13-.36-.44-.73-.87-1.09-1.31-.28-.33-.56-.67-.83-1-.01-.02-.03-.03-.05-.05-.03.01-.05.02-.08.04-.71.39-1.45.73-2.2,1.02-1.38.54-2.82.89-4.29,1.07-1.78.21-3.57.2-5.35,0-1.22-.14-2.42-.39-3.6-.73-1.37-.4-2.69-.91-3.94-1.58-.65-.34-1.26-.73-1.87-1.14-.49-.33-.95-.68-1.4-1.05-.02-.02-.04-.03-.07-.05-.06.05-.13.1-.19.15-.62.52-1.24,1.03-1.86,1.55-.14.12-.28.23-.42.35-.05.04-.07.08-.07.14.01.32-.13.58-.36.8-.42.38-1.11.41-1.55.05-.54-.44-.53-1.27,0-1.71.26-.21.54-.24.84-.17.02,0,.03,0,.05.01.02,0,.03,0,.05.02.31-.44.6-.9.92-1.33.32-.43.66-.85.99-1.28-.03-.03-.06-.07-.09-.1-.44-.46-.85-.93-1.24-1.43-.21-.27-.4-.56-.6-.84-.06-.09-.11-.18-.12-.3-.04,0-.07,0-.1-.01-.91-.08-1.81-.18-2.72-.25-.47-.04-.94-.07-1.4-.14-.26-.04-.51-.09-.76-.14-.27-.05-.42-.24-.53-.47-.13-.31-.17-.63-.17-.97,0-.63.16-1.22.42-1.79.11-.24.25-.47.45-.65.24-.21.5-.27.8-.18.35.1.7.22,1.05.33.18.06.35.11.53.17.03,0,.06.01.1.02-.05-.1-.09-.18-.13-.27-.21-.42-.41-.85-.57-1.29-.08-.21-.15-.42-.2-.63-.03-.1-.08-.15-.17-.19-.6-.28-1.19-.58-1.76-.92-.64-.37-1.26-.78-1.82-1.27-.33-.29-.63-.6-.88-.96-.18-.26-.32-.54-.4-.85-.14-.57,0-1.09.34-1.55.21-.27.46-.48.74-.68.04-.03.08-.06.12-.09l.4-.23ZM45.94,6.57s0,0,0,0c-.04-.06-.07-.13-.11-.19-.29-.52-.61-1.02-.96-1.5-.44-.59-.92-1.13-1.46-1.63-.62-.58-1.29-1.08-2.04-1.49-.77-.42-1.58-.68-2.46-.76-.68-.06-1.36-.01-2.04.12-1.15.23-2.24.62-3.26,1.19-.66.37-1.29.8-1.9,1.26-.68.51-1.29,1.08-1.86,1.71-.87.96-1.62,2.02-2.29,3.13-.6.98-1.14,2-1.66,3.02-.49.95-.96,1.92-1.35,2.92-.04.09-.03.16.04.22.06.05.11.1.17.14.31.22.63.42.97.6.64.32,1.3.6,1.97.85,1.01.38,2.04.71,3.08,1.01,1.27.37,2.55.68,3.85.92.86.16,1.72.31,2.59.44.77.12,1.54.21,2.31.29,1,.1,2.01.16,3.02.15.62,0,1.24-.03,1.86-.09.81-.08,1.61-.21,2.42-.34.57-.09,1.14-.21,1.69-.39.24-.08.47-.17.69-.31.06-.04.08-.08.07-.15-.03-.37-.05-.75-.09-1.11-.13-1.03-.33-2.05-.56-3.06-.21-.91-.45-1.81-.77-2.69-.19-.53-.4-1.05-.62-1.57-.22-.51-.45-1.02-.69-1.52-.19-.39-.4-.77-.59-1.16ZM12.46,15.45s0,0-.01,0c.01.04.03.08.04.12.1.21.22.4.36.58.25.31.54.59.85.84.6.49,1.25.9,1.93,1.27,1.16.64,2.38,1.17,3.61,1.65,1.76.68,3.55,1.25,5.37,1.76,2.85.79,5.73,1.42,8.64,1.92,3.68.64,7.38,1.09,11.11,1.31,2.3.14,4.61.18,6.91.09,1.46-.06,2.91-.18,4.35-.41,1.05-.17,2.09-.39,3.09-.76.5-.18.97-.41,1.41-.72.24-.17.45-.37.61-.62.17-.28.23-.58.18-.9,0-.02-.01-.05-.02-.08-.01.02-.02.02-.03.03-.06.14-.16.26-.28.37-.28.26-.58.49-.91.69-.28.17-.56.32-.86.45-.51.22-1.02.4-1.56.54-.72.19-1.44.32-2.18.42-1.82.24-3.64.39-5.48.41-1.35.02-2.7-.03-4.04-.16-.26-.02-.51-.07-.77-.07-.04,0-.09.01-.1-.04,0-.03.02-.05.1-.05.17,0,.35,0,.52,0,.22,0,.44-.02.66-.03.82-.01,1.63-.02,2.45-.03,1.36-.02,2.72-.06,4.08-.17.97-.08,1.93-.17,2.88-.32.74-.12,1.48-.26,2.19-.48.79-.24,1.54-.57,2.22-1.04.2-.14.39-.31.58-.47.12-.1.17-.23.16-.39,0-.1-.02-.21-.02-.31,0-.08-.03-.14-.08-.2-.11-.13-.23-.27-.35-.39-.42-.43-.9-.78-1.39-1.11-.85-.56-1.75-1.02-2.68-1.45-1.33-.61-2.7-1.13-4.09-1.59-.77-.26-1.55-.49-2.33-.73-.04-.01-.07-.02-.12-.03.01.07.02.12.03.18.05.32.1.64.14.97.05.41.09.83.09,1.24,0,.22-.08.37-.25.49-.16.11-.34.18-.51.25-.35.16-.73.27-1.1.36-.48.12-.96.2-1.44.28-.73.13-1.47.23-2.21.3-.68.06-1.36.07-2.04.07-1.1,0-2.2-.08-3.29-.21-1.26-.14-2.51-.33-3.76-.56-1.73-.32-3.44-.72-5.13-1.24-1.33-.41-2.65-.86-3.92-1.44-.49-.23-.96-.48-1.4-.8-.16-.11-.31-.23-.43-.39-.14-.18-.19-.38-.07-.6.01-.02.02-.05.03-.07.1-.28.18-.56.29-.83.19-.51.43-1,.67-1.49.02-.03.03-.07.05-.11-.05,0-.08,0-.11,0-1.57-.01-3.13.02-4.7.14-1.31.1-2.62.25-3.9.53-.94.2-1.86.45-2.72.87-.35.17-.68.38-.96.65-.17.17-.32.36-.41.58-.02.05-.03.09,0,.13.1.19.2.38.33.55.22.29.48.54.76.78.3.25.63.47.97.67,1.13.68,2.32,1.25,3.53,1.78.32.14.65.28.96.44.35.17.7.36,1.05.54.02,0,.03.02.05.03-.09-.02-.18-.04-.27-.06-1.06-.34-2.11-.72-3.13-1.16-.99-.43-1.94-.93-2.85-1.51-.44-.28-.84-.62-1.18-1.02-.07-.08-.13-.16-.2-.24ZM24.18,29.61c.09.08.18.15.26.22.48.38.98.73,1.49,1.07.94.62,1.93,1.14,2.97,1.58,1.01.42,2.04.76,3.1,1.03,1.94.5,3.91.71,5.9.69,1.3-.02,2.59-.16,3.86-.44.93-.21,1.84-.49,2.73-.86.59-.24,1.17-.51,1.73-.82.02-.01.04-.03.07-.05-.04-.03-.07-.06-.1-.09-.02-.02-.04-.03-.05-.05-.02-.08-.08-.12-.13-.18-.31-.37-.63-.73-.94-1.09-.11-.13-.12-.27-.07-.43.05-.13.13-.24.21-.34.26-.31.58-.55.96-.71.21-.09.44-.15.68-.12.26.03.44.15.54.39.07.17.15.34.23.5.16.32.31.65.53.93,0,0,.01,0,.03,0,.04-.03.08-.06.12-.09.44-.32.86-.66,1.27-1.01.69-.6,1.33-1.27,1.91-1.98.56-.69,1.05-1.43,1.4-2.25.02-.04.03-.07.05-.12-.05,0-.09,0-.13,0-.59.03-1.19.07-1.78.1-2.16.08-4.31.04-6.46-.08-3.3-.19-6.59-.56-9.85-1.07-3.13-.5-6.23-1.13-9.3-1.94-1.96-.52-3.89-1.11-5.79-1.81-.73-.27-1.44-.56-2.15-.87-.03-.01-.06-.02-.11-.04.02.07.04.11.06.15.13.31.26.62.4.93.14.3.3.6.45.9.05.09.11.18.11.28.03.01.04.02.06.02.24.08.49.15.73.24.96.32,1.92.64,2.88.97,1.07.37,2.12.79,3.17,1.24.47.2.93.41,1.37.66.13.07.26.16.38.25.06.05.12.11.16.18.08.14.05.29-.07.4-.04.04-.1.08-.15.09-.12.04-.24.08-.37.1-.34.06-.69.06-1.04.05-.46,0-.91-.03-1.37-.05-.61-.03-1.22-.06-1.83-.1-.49-.03-.97-.07-1.46-.11-.03,0-.06,0-.11,0,.02.04.03.06.05.08.1.15.2.3.31.45.43.58.9,1.12,1.4,1.64.02.02.04.03.06.04.13-.16.25-.31.37-.47.17-.23.34-.47.51-.7.08-.12.19-.2.33-.23.16-.04.33-.02.49.02.25.08.46.22.66.39.3.26.55.57.69.94.08.2.05.41-.13.54-.36.27-.7.56-1.05.84-.07.05-.13.11-.21.17ZM26.58,25.62s0-.02,0-.03c-.03-.02-.06-.04-.08-.05-.26-.13-.51-.28-.77-.4-.96-.45-1.94-.83-2.93-1.21-1.03-.39-2.08-.74-3.12-1.09-1.21-.41-2.42-.82-3.63-1.23-.13-.04-.24-.03-.35.06-.14.11-.23.25-.31.41-.21.43-.35.88-.42,1.35-.05.37-.06.74.05,1.11.03.09.07.17.11.26.04.07.09.11.17.12.19.02.39.05.58.06.53.05,1.06.09,1.59.14.82.07,1.65.16,2.47.23.94.08,1.88.15,2.82.21.8.05,1.6.08,2.4.12.42.02.83.02,1.25-.03.06,0,.11-.02.17-.02ZM47.26,29.94c-.17,0-.32.06-.46.13-.36.17-.66.42-.94.7-.02.02-.02.04-.04.06.11.12.22.24.32.35.42.49.85.98,1.27,1.47.29.35.58.7.87,1.05.26.32.55.63.78.98.05.07.05.07,0,.13-.09.14-.09.29-.04.43.08.23.23.39.45.47.27.1.53.08.77-.09.27-.19.34-.57.2-.87-.11-.23-.28-.36-.54-.36-.12,0-.23.01-.37.02-.06-.08-.14-.16-.2-.27-.07-.13-.12-.26-.17-.4-.16-.35-.3-.7-.47-1.05-.23-.45-.47-.9-.7-1.35-.2-.38-.4-.77-.6-1.15-.04-.09-.08-.18-.12-.27ZM23.46,27.52s-.02.02-.03.03c-.29.44-.63.84-.95,1.25-.36.46-.72.91-1.07,1.38-.25.34-.48.7-.71,1.05-.08.12-.2.2-.31.3-.15-.08-.3-.11-.46-.11-.14,0-.25.05-.35.13-.1.09-.17.2-.22.32-.1.27-.02.58.19.76.32.27.87.27,1.17-.13.12-.16.16-.34.08-.53-.02-.04-.01-.06.01-.09.08-.08.16-.17.25-.25.68-.57,1.36-1.14,2.04-1.7.47-.39.95-.76,1.43-1.13.06-.05.12-.09.19-.15-.06-.09-.12-.18-.18-.26-.22-.29-.47-.55-.78-.74-.09-.06-.19-.1-.3-.13ZM45.6,30.6c.44-.44.91-.82,1.55-.91-.02-.07-.05-.13-.06-.19-.01-.06-.05-.1-.1-.12-.04-.02-.09-.03-.14-.03-.17-.02-.32.03-.47.1-.32.14-.59.35-.83.61-.06.07-.1.15-.15.23-.03.04-.03.1.01.14.06.06.11.12.17.18ZM24.97,28.47c.08-.06.14-.1.21-.15.04-.03.04-.07.04-.11-.01-.06-.03-.11-.05-.16-.13-.25-.3-.47-.51-.66-.14-.13-.29-.24-.46-.32-.12-.05-.24-.08-.37-.05-.04,0-.08.03-.1.06-.04.07-.07.14-.11.22.61.21,1,.66,1.35,1.18Z"/>
          <path class="cls-17" d="M41.73,23.94c-.1,0-.2,0-.3,0-.37-.03-.74-.05-1.11-.09-3.25-.36-6.49-.82-9.71-1.41-1.57-.29-3.13-.62-4.66-1.07-.59-.17-1.18-.35-1.76-.56-.04-.01-.07-.03-.1-.06.02,0,.04,0,.05,0,1.15.25,2.3.48,3.46.67.06,0,.11.02.17.03,1.63.38,3.27.68,4.92.95.94.15,1.88.29,2.82.44.31.05.63.13.94.19,1.06.22,2.12.46,3.18.64.6.1,1.2.16,1.8.2.09,0,.19.01.28.02,0,0,0,.01,0,.02Z"/>
        </g>
        <g>
          <g>
            <path class="cls-5" d="M15.04,47.99h12.59v2.78H9.42l5.94-10.06h-5.51v-2.78h11.13l-5.94,10.06Z"/>
            <path class="cls-5" d="M46.74,37.92v13.27l-7.28-6.74v6.32h-3.43v-13.27l7.28,6.74v-6.32h3.43Z"/>
            <path class="cls-5" d="M60.58,50.77h-12.42l6.21-13.27,6.21,13.27ZM52.68,48.2h3.39l-1.69-3.62-1.69,3.62Z"/>
          </g>
          <path class="cls-5" d="M27.76,37.71v3.1c-1.86.12-3.32,1.66-3.32,3.53s1.46,3.41,3.32,3.53v3.1c-3.57-.11-6.42-3.05-6.42-6.64s2.85-6.51,6.42-6.64ZM34.61,44.35c0,3.59-2.85,6.53-6.42,6.64v-3.1c1.86-.12,3.32-1.66,3.32-3.53s-1.46-3.41-3.32-3.53v-3.1c3.57.12,6.42,3.05,6.42,6.64Z"/>
        </g>
        <g>
          <path class="cls-6" d="M15.58,30.48l-1.56-.09.09-1.56c.01-.25-.17-.46-.42-.47l-1.25-.07c-.25-.01-.46.17-.47.42l-.09,1.56-1.56-.09c-.25-.01-.46.17-.47.42l-.07,1.25c-.01.25.17.46.42.47l1.56.09-.09,1.56c-.01.25.17.46.42.47l1.25.07c.25.01.46-.17.47-.42l.09-1.56,1.56.09c.25.01.46-.17.47-.42l.07-1.25c.01-.25-.17-.46-.42-.47Z"/>
          <path class="cls-17" d="M13.33,34.62l-1.25-.07c-.3-.02-.53-.27-.51-.57l.08-1.46-1.46-.08c-.3-.02-.53-.27-.51-.57l.07-1.25c.02-.3.27-.53.57-.51l1.46.08.08-1.46c.02-.3.27-.53.57-.51l1.25.07c.3.02.53.27.51.57l-.08,1.46,1.46.08c.3.02.53.27.51.57l-.07,1.25c-.02.3-.27.53-.57.51l-1.46-.08-.08,1.46c-.02.3-.27.53-.57.51ZM10.31,30.29c-.19-.01-.36.14-.37.33l-.07,1.25c-.01.19.14.36.33.37l1.56.09c.05,0,.1.05.09.1l-.09,1.56c-.01.19.14.36.33.37l1.25.07c.19.01.36-.14.37-.33l.09-1.56c0-.05.05-.1.1-.09l1.56.09c.19.01.36-.14.37-.33l.07-1.25c.01-.19-.14-.36-.33-.37l-1.56-.09c-.05,0-.1-.05-.09-.1l.09-1.56c.01-.19-.14-.36-.33-.37l-1.25-.07c-.19-.01-.36.14-.37.33l-.09,1.56c0,.05-.05.1-.1.09l-1.56-.09Z"/>
        </g>
        <g>
          <g>
            <circle class="cls-4" cx="63.78" cy="44.41" r="1.1"/>
            <path class="cls-17" d="M63.52,45.57c-.64-.14-1.04-.78-.9-1.42s.78-1.04,1.42-.9,1.04.78.9,1.42-.78,1.04-1.42.9ZM64.01,43.42c-.54-.12-1.08.22-1.21.76s.22,1.08.76,1.21,1.08-.22,1.21-.76-.22-1.08-.76-1.21Z"/>
          </g>
          <g>
            <circle class="cls-6" cx="62.83" cy="48.63" r="1.1"/>
            <path class="cls-17" d="M62.57,49.79c-.64-.14-1.04-.78-.9-1.42s.78-1.04,1.42-.9,1.04.78.9,1.42-.78,1.04-1.42.9ZM63.05,47.65c-.54-.12-1.08.22-1.21.76s.22,1.08.76,1.21,1.08-.22,1.21-.76-.22-1.08-.76-1.21Z"/>
          </g>
          <g>
            <path class="cls-8" d="M65.66,45.93c-.59-.13-1.18.24-1.31.83s.24,1.18.83,1.31c.59.13,1.18-.24,1.31-.83s-.24-1.18-.83-1.31Z"/>
            <path class="cls-17" d="M65.16,48.16c-.64-.14-1.04-.78-.9-1.42s.78-1.04,1.42-.9,1.04.78.9,1.42-.78,1.04-1.42.9ZM65.64,46.01c-.54-.12-1.08.22-1.21.76s.22,1.08.76,1.21,1.08-.22,1.21-.76-.22-1.08-.76-1.21Z"/>
          </g>
          <g>
            <circle class="cls-10" cx="61.2" cy="46.04" r="1.1"/>
            <path class="cls-17" d="M60.93,47.2c-.64-.14-1.04-.78-.9-1.42s.78-1.04,1.42-.9,1.04.78.9,1.42-.78,1.04-1.42.9ZM61.42,45.06c-.54-.12-1.08.22-1.21.76s.22,1.08.76,1.21,1.08-.22,1.21-.76-.22-1.08-.76-1.21Z"/>
          </g>
        </g>
        <g>
          <ellipse class="cls-3" cx="18.23" cy="50.59" rx=".95" ry=".93" transform="translate(-18.71 11.51) rotate(-23.58)"/>
          <ellipse class="cls-3" cx="6.32" cy="44.29" rx="1.45" ry="1.42" transform="translate(-17.19 6.23) rotate(-23.58)"/>
          <ellipse class="cls-3" cx="19.4" cy="35.04" rx="1.5" ry="1.47" transform="translate(-12.4 10.68) rotate(-23.58)"/>
          <ellipse class="cls-3" cx="22.54" cy="41.06" rx=".61" ry=".6" transform="translate(-14.54 12.44) rotate(-23.58)"/>
          <ellipse class="cls-3" cx="2.45" cy="40.47" rx=".75" ry=".73" transform="translate(-15.98 4.36) rotate(-23.58)"/>
          <ellipse class="cls-3" cx="9.6" cy="50.25" rx=".48" ry=".47" transform="translate(-19.3 8.04) rotate(-23.58)"/>
          <path class="cls-3" d="M19.14,45.58"/>
          <path class="cls-3" d="M11.45,38.31"/>
        </g>
        <g>
          <ellipse class="cls-3" cx="47.98" cy="40.78" rx=".95" ry=".93" transform="translate(-2.38 78.58) rotate(-77.26)"/>
          <ellipse class="cls-3" cx="59.74" cy="39.34" rx="1.45" ry="1.42" transform="translate(8.19 88.93) rotate(-77.26)"/>
          <ellipse class="cls-3" cx="59.82" cy="50.93" rx="1.5" ry="1.47" transform="translate(-3.05 98.04) rotate(-77.26)"/>
          <ellipse class="cls-3" cx="49.87" cy="46.52" rx=".61" ry=".6" transform="translate(-6.5 84.9) rotate(-77.26)"/>
          <ellipse class="cls-3" cx="62.17" cy="35.04" rx=".75" ry=".73" transform="translate(14.28 87.95) rotate(-77.26)"/>
          <ellipse class="cls-3" cx="53.36" cy="34.03" rx=".48" ry=".47" transform="translate(8.4 78.57) rotate(-77.26)"/>
          <path class="cls-3" d="M51.48,44.48"/>
          <path class="cls-3" d="M61.89,42.58"/>
        </g>
      </g>
    </g>
  </g>
</svg>